Coordinates
version=1
nRows=6
nColumns=36
inDegrees=yes

Units are S.I. units (second, meters, Newtons, ...)
If the header above contains a line with 'inDegrees', this indicates whether rotational values are in degrees (yes) or radians (no).

endheader
time	pelvis_tilt	pelvis_list	pelvis_rotation	pelvis_tx	pelvis_ty	pelvis_tz	hip_flexion_r	hip_adduction_r	hip_rotation_r	knee_angle_r	knee_angle_r_beta	ankle_angle_r	subtalar_angle_r	mtp_angle_r	hip_flexion_l	hip_adduction_l	hip_rotation_l	knee_angle_l	knee_angle_l_beta	ankle_angle_l	subtalar_angle_l	mtp_angle_l	lumbar_extension	lumbar_bending	lumbar_rotation	arm_flex_r	arm_add_r	arm_rot_r	elbow_flex_r	pro_sup_r	arm_flex_l	arm_add_l	arm_rot_l	elbow_flex_l	pro_sup_l
      2.87083330	    -16.76274276	     -1.10189163	      2.48933900	     -0.67277644	      1.25038605	     -0.06692509	     12.21704071	     -1.66382927	     -0.03834341	     34.62653412	      0.60434703	     13.53515517	    -17.48265450	     -7.49999987	     11.84843659	     -1.26971401	     11.46016868	     33.90821272	      0.59180996	     21.90396908	     -4.93307584	     -7.49999987	     -0.78170680	      1.48733825	     -3.94520044	      7.80441209	    -10.31419154	     23.23722718	    101.92489129	     82.36681913	      8.58373251	     -9.18624027	     21.52954193	    100.14575638	     75.79179453
      2.87500000	    -16.32217602	     -0.69277122	      2.41832325	     -0.65461202	      1.25384124	     -0.07178619	     10.42228194	     -2.17867152	     -0.48328970	     33.51375365	      0.58492535	     11.46394525	    -16.68025965	     -7.49999987	      9.96916780	     -1.02802991	     10.86086563	     32.74897943	      0.57157752	     20.62985692	     -3.26645257	     -7.49999987	      0.15212076	      0.94340060	     -4.18265749	      6.98681748	    -10.17837640	     23.71573705	    102.56415187	     82.68646728	      7.92263295	     -9.75593701	     22.70263282	    101.99305793	     75.85375202
      2.87916670	    -15.85123789	     -0.54991444	      2.44645495	     -0.64848029	      1.26328301	     -0.06833795	      8.82573068	     -2.26358432	     -1.10655728	     32.24157969	      0.56272172	     10.10253431	    -16.19213902	     -7.49999987	      8.37721690	     -1.11979323	     10.72811179	     31.36860635	      0.54748546	     18.57410068	     -2.87040313	     -7.49999987	      0.69566772	      0.41492559	     -4.52114246	      6.22236350	     -9.88024621	     24.17950645	    103.42212168	     82.65950217	      6.98112433	    -10.26621052	     23.17350646	    103.27348646	     75.25659000
      2.88333330	    -15.30912299	     -0.41701244	      2.47383400	     -0.63723168	      1.27208185	     -0.07771077	      7.33954040	     -2.71520606	     -1.67730650	     31.30946269	      0.54645321	      7.96741238	    -14.83389042	     -7.49999987	      6.56061365	     -1.01003847	     10.50846931	     29.72147311	      0.51873756	     16.43656601	     -2.04086417	     -7.49999987	      1.44187478	      0.54903201	     -4.83976113	      5.39640946	    -10.09261308	     24.49892202	    103.38261799	     82.98219126	      5.95688187	     -9.91577742	     23.53778049	    103.40009933	     75.23164461
      2.88750000	    -15.00123283	     -0.59954432	      2.41351914	     -0.63175301	      1.27448395	     -0.07483896	      7.14415455	     -2.64045173	     -1.78676542	     31.90097872	      0.55677711	      7.15976433	    -14.43438072	     -7.49999987	      5.96206799	     -1.36944981	      9.90995696	     29.37393093	      0.51267181	     14.32291468	     -1.40414110	     -7.49999987	      1.69719946	      0.66876963	     -5.25457333	      4.94699550	    -10.17486794	     24.70979420	    103.81604777	     83.05840910	      5.29069281	     -9.68669741	     23.87316355	    103.38810537	     75.23581086
      2.89166670	    -14.44470251	     -0.52483784	      2.13216188	     -0.62577234	      1.28216252	     -0.07887835	      6.54917988	     -3.01345035	     -1.90197293	     32.01037280	      0.55868640	      5.61257784	    -13.66537848	     -7.49999987	      5.53603180	     -1.23219562	      8.87605781	     29.20149204	      0.50966218	     11.94086470	     -2.21361521	     -7.49999987	      1.32124805	      0.71033364	     -5.55145592	      5.16324880	    -10.42438513	     25.10950112	    104.75083918	     83.31500442	      4.91167920	     -9.20345410	     23.56776691	    103.39399837	     75.09103765
